<?xml version="1.0" encoding="UTF-8"?>
<svg id="Layer_2" data-name="Layer 2" xmlns="http://www.w3.org/2000/svg" viewBox="0 0 800 800">
  <defs>
    <style>
      .cls-1 {
        fill: none;
      }

      .cls-2 {
        fill: #f9db6c;
      }

      .cls-3 {
        fill: #fff;
      }

      .cls-4 {
        fill: #d6744d;
      }

      .cls-5 {
        fill: #3a3a3a;
      }
    </style>
  </defs>
  <path class="cls-2" d="m337.52,375.45c-107.58,20.29-181.91,76.76-186.66,143.11-5.06,70.67,70.27,138.8,184.54,168.3,31.3-102.66,16.22-233.51,2.12-311.41Z"/>
  <path class="cls-2" d="m536.99,393.47c-28.76-10.4-59.78-18.02-92.53-22.72,4.48,25.11,8.09,50.06,10.77,74.42,12.01,67.47,11.98,128.79-.09,182.26-3.53,25.15-8.77,48.63-15.61,70.12,30.97-2.25,60.64-7.24,88.52-14.9,46.35-91.81,31.28-206.14,8.94-289.18Z"/>
  <path class="cls-1" d="m528.05,682.65c3.37-6.67,6.37-13.47,9.11-20.36-2.18-2.84-4.44-5.73-6.87-8.73-3.46-4.28-2.97-10.51,1.02-14.31,3.94-3.74,9.96-3.89,14.04-.67,24.2-82.4,10.52-174.94-8.36-245.12-28.76-10.4-59.78-18.02-92.53-22.72,4.48,25.11,8.09,50.06,10.77,74.42,12.01,67.47,11.98,128.79-.09,182.26-3.07,21.85-7.43,42.44-13.01,61.56.95,2.77,1.84,5.48,2.67,8.12,29.06-2.41,56.95-7.23,83.24-14.45Z"/>
  <path class="cls-5" d="m559.43,656.36c10.02,13.73,17.43,25.91,22.79,36.94,4.1-1.98,8.14-4.06,12.13-6.23-8.51-9.44-19.79-19.49-34.92-30.7Z"/>
  <path class="cls-5" d="m688.32,521.67c-10.1-65.96-64.34-117.31-125.04-147.89-21.1-10.63-42.98-18.75-64.05-24.11-4.09-1.04-8.21-2-12.34-2.89-86.98-18.69-181.23-6.91-260.2,34.2-12.36,6.43-24.29,13.71-35.54,21.95-43.03,31.51-67.39,70.75-70.45,113.47-3.23,45.16,17.44,88.82,59.79,126.26,23.71,20.96,50.37,37.99,78.85,51.23,4.5-7.98,8.8-17.46,12.97-28.9-77.89-34.8-125.5-89.79-121.45-146.42,4.75-66.35,79.08-122.82,186.66-143.11,14.1,77.9,29.18,208.74-2.12,311.41-2.3-.59-4.55-1.23-6.82-1.85-4.11,11.43-8.38,21.17-12.79,29.56,23.49,6.48,47.64,10.68,71.97,12.67-2.71-14.4-7.96-31.37-16.65-52.46-2.1-5.09.16-10.92,5.07-13.42,5.56-2.83,12.41-.33,14.78,5.44,10.22,24.86,15.99,44.83,18.68,61.63,7.05.19,14.1.19,21.14,0-2.65-14.64-7.95-31.98-16.88-53.65-2.1-5.09.16-10.92,5.07-13.42,5.56-2.83,12.41-.33,14.78,5.44,3.24,7.89,6,15.24,8.39,22.2,5.58-19.12,9.94-39.71,13.01-61.56,12.07-53.47,12.1-114.78.09-182.26-2.67-24.36-6.29-49.31-10.77-74.42,32.75,4.7,63.77,12.32,92.53,22.72,18.88,70.18,32.56,162.72,8.36,245.12.05.04.09.08.14.11.23-1.17.62-2.32,1.25-3.39,3.16-5.38,10.27-6.97,15.38-3.39,23.25,16.29,39.36,30.66,50.81,43.95,36.71-24.35,65.3-58.18,74.3-103.6.08-.41.14-.82.22-1.23,48.48-1.44,51.04-20.72,51.04-24.7s-2.54-23.03-50.18-24.67Z"/>
  <path class="cls-5" d="m528.05,682.65c-26.29,7.22-54.19,12.04-83.24,14.45,3.49,11.14,5.93,21.14,7.44,30.18,10.87-.87,21.69-2.16,32.4-3.92,25.46-4.17,52.35-11.18,78.01-21.46-5.65-11.54-13.85-24.46-25.49-39.62-2.74,6.89-5.75,13.69-9.11,20.36Z"/>
  <g>
    <path class="cls-5" d="m452.24,727.29c-1.51-9.04-3.94-19.04-7.44-30.18-1.76.15-3.51.32-5.28.44.9-2.82,1.76-5.67,2.61-8.56-2.39-6.96-5.15-14.31-8.39-22.2-2.37-5.77-9.22-8.27-14.78-5.44-4.91,2.5-7.16,8.33-5.07,13.42,8.93,21.67,14.24,39.01,16.88,53.65,2.67,14.79,2.63,26.83.84,37.79-.91,5.57,2.65,10.85,8.15,12.12h.05c6.01,1.4,11.93-2.53,12.95-8.62,2.02-12.05,2.27-25.66-.53-42.42Z"/>
    <path class="cls-5" d="m390.96,666.78c-2.37-5.77-9.22-8.27-14.78-5.44-4.91,2.5-7.16,8.33-5.07,13.42,8.69,21.09,13.93,38.07,16.65,52.46,2.89,15.33,2.91,27.73,1.07,38.98-.91,5.57,2.65,10.85,8.15,12.12h.05c6.01,1.4,11.93-2.53,12.95-8.62,1.97-11.78,2.25-25.05-.35-41.3-2.69-16.8-8.45-36.77-18.68-61.63Z"/>
  </g>
  <path class="cls-5" d="m308.11,678.82c-5.46-1.81-10.82-3.7-16.06-5.69-6.78-2.57-13.36-5.29-19.74-8.14-4.16,11.44-8.46,20.92-12.97,28.9-6.25,11.07-12.88,19.31-20.08,26.01-4.13,3.85-4.54,10.2-.97,14.57l.03.04c3.9,4.77,10.99,5.29,15.52,1.1,8.86-8.19,17.28-18.63,25.23-33.29,5.26,2.06,10.55,4.03,15.9,5.85-6.24,11.05-12.87,19.28-20.06,25.99-4.13,3.85-4.54,10.2-.97,14.57l.03.04c3.9,4.77,10.99,5.29,15.52,1.1,9.25-8.56,18.03-19.6,26.29-35.32,4.41-8.39,8.68-18.13,12.79-29.56-6.98-1.92-13.8-3.99-20.46-6.19Z"/>
  <g>
    <path class="cls-5" d="m633.66,708.33c-4.42-10.35-10.85-21-20.72-32.46-11.45-13.29-27.56-27.66-50.81-43.95-5.11-3.58-12.22-1.99-15.38,3.39-.63,1.08-1.03,2.23-1.25,3.39.55.45,1.08.96,1.54,1.54,4.54,5.61,8.63,10.96,12.39,16.11,15.13,11.21,26.41,21.26,34.92,30.7,9.36,10.38,15.43,20.05,19.61,29.73,2.24,5.18,8.09,7.7,13.4,5.81l.05-.02c5.81-2.07,8.68-8.58,6.25-14.25Z"/>
    <path class="cls-5" d="m545.49,638.71s-.09-.08-.14-.11c-2.35,8.01-5.09,15.92-8.19,23.7,11.64,15.15,19.84,28.08,25.49,39.62,6.2,12.66,9.39,23.7,10.74,34.22.72,5.6,5.64,9.64,11.27,9.28h.05c6.16-.39,10.71-5.85,9.95-11.97-1.5-12.04-5.09-25.04-12.45-40.15-5.37-11.03-12.77-23.21-22.79-36.94-3.09-2.29-6.29-4.61-9.71-7.01-3.49-2.44-5-6.66-4.23-10.64Z"/>
  </g>
  <path class="cls-5" d="m549.71,649.35c3.42,2.39,6.62,4.72,9.71,7.01-3.76-5.15-7.85-10.5-12.39-16.11-.47-.58-.99-1.09-1.54-1.54-.77,3.98.74,8.2,4.23,10.64Z"/>
  <circle class="cls-5" cx="206.89" cy="501.6" r="10.64"/>
  <circle class="cls-5" cx="284.9" cy="515.79" r="10.64"/>
  <path class="cls-5" d="m177.84,378.43c-9.5-22.22-28.08-45.83-71.15-76-.86-.6-1.77-1.04-2.71-1.36.04-.53.07-1.06.07-1.6,0-11.75-9.53-21.28-21.28-21.28s-21.28,9.53-21.28,21.28,9.53,21.28,21.28,21.28c3.58,0,6.95-.89,9.91-2.45.49.54,1.05,1.03,1.67,1.46,38.4,26.85,55.19,46.91,63.89,67.08,2.22,5.15,8.04,7.66,13.33,5.78l.05-.02c5.78-2.06,8.63-8.53,6.22-14.17Z"/>
  <path class="cls-5" d="m303.69,307.23c8.2-8.42,8.02-21.89-.4-30.09-8.42-8.2-21.89-8.02-30.09.4-8.2,8.42-8.02,21.89.4,30.09,1.24,1.21,2.6,2.21,4.02,3.05,8.64,45.63,6.66,71.57-1.14,92-2,5.24.42,11.1,5.52,13.44l.05.02c5.58,2.55,12.14-.09,14.34-5.81,8.45-21.89,11.67-50.69,2.87-99.64,1.58-.94,3.08-2.07,4.43-3.46Z"/>
  <g>
    <path class="cls-3" d="m677.26,121.24c-5.43-12.02-15.86-23.11-31.89-33.91-18.73-12.62-36.34-18.99-52.45-18.99-2.38,0-4.72.14-7.03.42-19.25,2.31-38.35,15.32-51.09,34.79-16.08,24.58-21.3,54.84-26.36,84.11-.48,2.77-.96,5.54-1.44,8.31-3.42,19.44-7.01,39.22-10.66,58.79-1.19,6.4-2.53,12.76-3.82,18.91-1.23,5.88-2.43,11.61-3.51,17.3,2.22-.7,4.56-1.4,7.02-2.12,1.39-.41,3.11-.92,3.58-1.09,13.33-5.08,26.72-10.64,39.76-16.51,36.45-16.4,66.78-32.92,92.71-50.51,31.8-21.62,62.73-60.66,45.18-99.5h0Z"/>
    <path class="cls-5" d="m696.65,112.48c-7.1-15.72-19.99-29.72-39.39-42.79-25.85-17.42-50.72-24.83-73.91-22.05-25.42,3.05-50.22,19.6-66.36,44.27-18.49,28.27-24.09,60.73-29.52,92.13-.48,2.75-.95,5.5-1.43,8.24-3.41,19.37-6.98,39.08-10.62,58.57-2.31,12.36-4.69,24.71-7.08,37.06-1.79,9.23-4.39,18.3-5.92,27.58-1,6.06-1.34,10.27,5.76,7.54,8.78-3.38,17.48-7,26.22-10.5,17.82-7.42,36.15-13.78,53.72-21.76,23.7-10.76,47.09-22.48,69.52-35.74,8.96-5.3,17.77-10.85,26.39-16.69,38.64-26.27,75.6-75,52.61-125.87Zm-200.63,176.37c-2.45.72-4.8,1.42-7.02,2.12,1.08-5.69,2.28-11.42,3.51-17.3,1.29-6.15,2.62-12.52,3.82-18.91,3.65-19.57,7.24-39.35,10.66-58.79.49-2.76.96-5.53,1.44-8.31,5.05-29.26,10.28-59.53,26.36-84.11,12.74-19.47,31.83-32.48,51.09-34.79,2.31-.28,4.65-.42,7.03-.42,16.11,0,33.72,6.37,52.45,18.99,16.03,10.8,26.46,21.89,31.89,33.91h0c17.55,38.84-13.37,77.88-45.18,99.5-25.93,17.59-56.26,34.11-92.71,50.51-13.04,5.87-26.43,11.42-39.76,16.51-.47.17-2.2.68-3.58,1.09Z"/>
  </g>
  <g>
    <path class="cls-3" d="m311.5,42.75c-.99-.06-2-.08-3.01-.08-12.39,0-26.1,4.17-41.8,12.7-22.78,12.38-37.56,27.24-43.95,44.18-6.84,18.14-4.13,41.09,7.26,61.38,14.37,25.61,38.8,44.23,62.42,62.23,2.24,1.71,4.47,3.41,6.7,5.12,15.75,12.08,31.63,24.4,47.21,36.61,5.13,4.02,10.16,8.14,15.02,12.13,4.64,3.81,9.16,7.51,13.71,11.1.4-2.29.86-4.69,1.36-7.2.28-1.42.63-3.18.69-3.68,1.65-14.18,2.91-28.62,3.73-42.89,2.3-39.9,1.65-74.43-1.97-105.56-4.49-38.2-24.83-83.66-67.38-86.03Z"/>
    <path class="cls-5" d="m400.01,126.31c-5.45-46.4-31.59-101.69-87.33-104.81-17.22-.96-35.59,4-56.15,15.17-27.39,14.88-45.46,33.51-53.7,55.36-9.03,23.95-5.81,53.6,8.61,79.3,16.53,29.45,42.73,49.42,68.08,68.74,2.22,1.69,4.44,3.38,6.64,5.07,11.71,8.98,23.38,18.01,35.01,27.08,10.86,8.47,20.9,17.64,32.65,25,6.04,3.78,12.25,7.27,18.55,10.6,4.33,2.29,8.32,5.22,12.8,7.26,3.4,1.55,5.15-.6,5.91-3.8,9.72-41.01,12.57-83.02,12.37-125.06v-.65c-.04-5.23-.14-10.46-.3-15.69-.46-14.56-1.44-29.11-3.14-43.58Zm-170.01,34.62c-11.39-20.29-14.1-43.24-7.26-61.38,6.39-16.94,21.18-31.8,43.95-44.18,15.7-8.53,29.41-12.7,41.8-12.7,1.01,0,2.01.03,3.01.08,42.55,2.38,62.89,47.83,67.38,86.03,3.62,31.13,4.26,65.66,1.97,105.56-.82,14.27-2.08,28.72-3.73,42.89-.07.5-.41,2.26-.69,3.68-.49,2.51-.95,4.91-1.36,7.2-4.55-3.58-9.07-7.29-13.71-11.1-4.87-3.99-9.9-8.11-15.02-12.13-15.58-12.21-31.47-24.53-47.21-36.61-2.23-1.71-4.46-3.41-6.7-5.12-23.62-18-48.04-36.61-62.42-62.23Z"/>
  </g>
  <circle class="cls-4" cx="299.09" cy="558.34" r="17.73"/>
  <circle class="cls-4" cx="171.43" cy="508.7" r="17.73"/>
  <circle class="cls-5" cx="231.71" cy="576.07" r="28.37"/>
  <path class="cls-5" d="m316.51,509.22h0c-2.15-2.15-2.66-5.44-1.3-8.16,1.12-2.24,1.15-4.13,1.01-5.52-.71-7.3-8.25-15.24-13.96-20.1-2.71-2.31-3.18-6.3-1.2-9.25l.02-.04c2.33-3.48,7.18-4.23,10.38-1.53,7.07,5.97,17.63,16.86,18.87,29.54.46,4.7-.41,9.24-2.55,13.43-2.15,4.22-7.93,4.97-11.28,1.62Z"/>
  <path class="cls-5" d="m223.75,464.53h0c-2.15,2.15-5.44,2.66-8.16,1.3-2.24-1.12-4.13-1.15-5.52-1.01-7.3.71-15.24,8.25-20.1,13.96-2.31,2.71-6.3,3.18-9.25,1.2l-.04-.02c-3.48-2.33-4.23-7.18-1.53-10.38,5.97-7.07,16.86-17.63,29.54-18.87,4.7-.46,9.24.41,13.43,2.55,4.22,2.15,4.97,7.93,1.62,11.28Z"/>
</svg>