<?xml version="1.0" encoding="UTF-8"?>
<svg id="Layer_2" data-name="Layer 2" xmlns="http://www.w3.org/2000/svg" viewBox="0 0 800 800">
  <defs>
    <style>
      .cls-1 {
        fill: none;
      }

      .cls-2 {
        stroke: #3a3a3a;
        stroke-miterlimit: 10;
        stroke-width: .23px;
      }

      .cls-2, .cls-3 {
        fill: #3a3a3a;
      }

      .cls-4 {
        fill: #f9db6c;
      }

      .cls-5 {
        fill: #fff;
      }

      .cls-6 {
        fill: #d6744d;
      }
    </style>
  </defs>
  <g>
    <path class="cls-5" d="m605.22,107.83c-18.84-12.69-36.55-19.1-52.75-19.1-2.39,0-4.75.14-7.07.42-19.36,2.33-38.57,15.41-51.38,34.99-16.17,24.72-21.42,55.15-26.51,84.59-.48,2.79-.96,5.58-1.45,8.35-3.46,19.66-7.07,39.55-10.72,59.12-1.2,6.44-2.54,12.84-3.84,19.03-1.24,5.91-2.45,11.67-3.53,17.39,2.23-.7,4.58-1.41,7.05-2.13,1.4-.41,3.13-.92,3.61-1.09,13.41-5.11,26.87-10.7,39.99-16.6,36.66-16.49,67.16-33.1,93.24-50.8,31.98-21.74,63.08-61.01,45.43-100.07-5.46-12.09-15.95-23.24-32.07-34.1Z"/>
    <path class="cls-3" d="m656.79,133.12h0c-7.15-15.81-20.1-29.89-39.61-43.04-26-17.52-51.01-24.98-74.33-22.18-25.56,3.07-50.51,19.72-66.73,44.52-18.59,28.43-24.23,61.08-29.68,92.66-.48,2.77-.95,5.53-1.44,8.28-3.45,19.58-7.04,39.4-10.68,58.91-1.16,6.2-2.48,12.49-3.75,18.56-2.68,12.78-5.45,25.99-7,39.61l21.26,2.42c-.32,2.79-1.81,4.49-2.35,4.91,1.84-1.41,8.09-3.68,18.59-6.77,2.65-.78,4.09-1.21,5.17-1.62,13.82-5.27,27.68-11.02,41.17-17.09,37.8-17,69.35-34.21,96.48-52.61,38.86-26.42,76.03-75.42,52.91-126.58Zm-201.77,177.37c-2.47.72-4.82,1.43-7.05,2.13,1.08-5.72,2.29-11.48,3.53-17.39,1.3-6.19,2.64-12.59,3.84-19.03,3.65-19.58,7.26-39.47,10.72-59.12.49-2.78.97-5.56,1.45-8.35,5.08-29.43,10.34-59.87,26.51-84.59,12.81-19.58,32.02-32.66,51.38-34.99,2.32-.28,4.68-.42,7.07-.42,16.2,0,33.91,6.4,52.75,19.1,16.12,10.86,26.61,22.01,32.07,34.1,17.64,39.06-13.45,78.32-45.43,100.07-26.08,17.69-56.58,34.31-93.24,50.8-13.12,5.9-26.59,11.49-39.99,16.6-.47.17-2.21.68-3.61,1.09Z"/>
  </g>
  <g>
    <path class="cls-5" d="m355.04,62.99c-1-.06-2.01-.08-3.03-.08-12.46,0-26.24,4.2-42.03,12.77-22.91,12.45-37.78,27.39-44.2,44.43-6.88,18.25-4.15,41.33,7.3,61.73,14.46,25.76,39.02,44.48,62.77,62.58,2.25,1.72,4.5,3.43,6.74,5.15,15.8,12.12,31.77,24.51,47.48,36.82,5.15,4.04,10.21,8.19,15.1,12.2,4.67,3.83,9.22,7.56,13.8,11.17.41-2.3.87-4.72,1.37-7.24.28-1.43.63-3.2.7-3.7,1.66-14.25,2.92-28.77,3.75-43.14,2.31-40.13,1.66-74.86-1.98-106.16-4.51-38.41-24.97-84.13-67.76-86.52Z"/>
    <path class="cls-3" d="m444.05,147.03c-5.48-46.67-31.77-102.27-87.82-105.4-17.32-.96-35.8,4.02-56.47,15.25-12.35,6.71-22.97,14.32-31.58,22.62-10.39,10.02-17.93,21.14-22.43,33.06-9.08,24.09-5.85,53.9,8.66,79.75,16.62,29.62,42.98,49.7,68.46,69.13,2.23,1.7,4.46,3.4,6.68,5.1,15.74,12.08,31.66,24.42,47.31,36.69,4.97,3.89,9.93,7.96,14.73,11.9,10.1,8.28,20.53,16.84,31.9,24.51l11.97-17.74c2.33,1.57,3.15,3.68,3.27,4.35-.4-2.28.47-8.88,2.59-19.61.53-2.71.82-4.18.95-5.33,1.71-14.69,3.01-29.63,3.86-44.41,2.38-41.38,1.7-77.32-2.09-109.87Zm-170.98,34.81c-11.45-20.41-14.18-43.48-7.3-61.73,6.42-17.03,21.3-31.98,44.2-44.43,15.79-8.58,29.58-12.77,42.03-12.77,1.02,0,2.03.03,3.03.08,42.8,2.39,63.25,48.11,67.76,86.52,3.64,31.3,4.29,66.03,1.98,106.16-.83,14.37-2.09,28.89-3.75,43.14-.07.5-.42,2.28-.7,3.7-.5,2.52-.96,4.94-1.37,7.24-4.58-3.61-9.13-7.34-13.8-11.17-4.89-4.01-9.95-8.16-15.1-12.2-15.71-12.31-31.69-24.7-47.48-36.82-2.24-1.72-4.49-3.43-6.74-5.15-23.75-18.1-48.32-36.82-62.77-62.58Z"/>
  </g>
  <path class="cls-4" d="m330.96,355.22c-107.61,20.3-181.96,76.79-186.71,143.15-5.06,70.68,70.28,138.84,184.59,168.34,31.31-102.69,16.23-233.57,2.13-311.49Z"/>
  <path class="cls-4" d="m530.48,373.25c-28.77-10.41-59.8-18.02-92.56-22.73,4.48,25.12,8.1,50.08,10.77,74.44,12.02,67.49,11.99,128.82-.09,182.3-3.53,25.15-8.77,48.65-15.62,70.14,30.98-2.25,60.66-7.24,88.55-14.9,46.36-91.83,31.29-206.2,8.95-289.26Z"/>
  <path class="cls-1" d="m521.54,662.51c3.37-6.67,6.37-13.47,9.11-20.36-2.18-2.84-4.44-5.73-6.87-8.73-3.47-4.28-2.97-10.52,1.02-14.31,3.94-3.75,9.96-3.89,14.04-.67,24.2-82.42,10.52-174.98-8.36-245.19-28.77-10.41-59.8-18.02-92.56-22.73,4.48,25.12,8.1,50.08,10.77,74.44,12.02,67.49,11.99,128.82-.09,182.3-3.07,21.85-7.43,42.45-13.01,61.58.95,2.77,1.84,5.48,2.67,8.12,29.07-2.42,56.97-7.23,83.27-14.46Z"/>
  <path class="cls-3" d="m552.92,636.21c10.03,13.74,17.43,25.92,22.8,36.95,4.1-1.98,8.15-4.06,12.13-6.24-8.51-9.44-19.8-19.5-34.93-30.71Z"/>
  <path class="cls-3" d="m681.86,501.48c-10.1-65.97-64.36-117.34-125.07-147.93-21.11-10.63-42.99-18.76-64.07-24.12-4.1-1.04-8.21-2.01-12.34-2.89-87-18.69-181.28-6.91-260.27,34.21-12.36,6.44-24.3,13.72-35.55,21.96-43.04,31.52-67.41,70.76-70.47,113.51-3.23,45.17,17.45,88.84,59.81,126.29,23.72,20.96,50.38,38,78.87,51.24,4.5-7.98,8.81-17.46,12.97-28.91-77.91-34.81-125.54-89.81-121.48-146.46,4.75-66.36,79.1-122.85,186.71-143.15,14.1,77.92,29.19,208.8-2.13,311.49-2.3-.59-4.55-1.23-6.82-1.85-4.11,11.43-8.38,21.17-12.79,29.56,23.49,6.48,47.66,10.69,71.99,12.67-2.72-14.4-7.96-31.38-16.65-52.48-2.1-5.09.16-10.93,5.07-13.43,5.56-2.83,12.41-.33,14.79,5.44,10.22,24.86,15.99,44.84,18.68,61.64,7.05.19,14.11.19,21.15,0-2.65-14.65-7.96-31.99-16.89-53.66-2.1-5.09.16-10.93,5.07-13.43,5.56-2.83,12.41-.33,14.79,5.44,3.25,7.89,6,15.25,8.39,22.21,5.58-19.13,9.94-39.72,13.01-61.58,12.08-53.48,12.11-114.81.09-182.3-2.67-24.37-6.29-49.32-10.77-74.44,32.76,4.71,63.79,12.32,92.56,22.73,18.89,70.2,32.56,162.76,8.36,245.19.05.04.09.08.14.11.23-1.17.62-2.32,1.25-3.39,3.16-5.39,10.27-6.98,15.39-3.4,23.26,16.29,39.37,30.67,50.82,43.96,36.72-24.36,65.32-58.2,74.32-103.62.08-.41.14-.82.22-1.23,48.49-1.44,51.06-20.72,51.06-24.71s-2.54-23.03-50.19-24.68Z"/>
  <path class="cls-3" d="m521.54,662.51c-26.3,7.22-54.2,12.04-83.27,14.46,3.49,11.14,5.93,21.14,7.44,30.19,10.87-.87,21.69-2.16,32.41-3.92,25.46-4.17,52.37-11.18,78.03-21.46-5.65-11.54-13.85-24.47-25.5-39.63-2.74,6.89-5.75,13.69-9.11,20.36Z"/>
  <g>
    <path class="cls-3" d="m445.71,707.15c-1.51-9.04-3.94-19.05-7.44-30.19-1.76.15-3.51.32-5.28.44.9-2.82,1.77-5.68,2.61-8.56-2.39-6.96-5.15-14.32-8.39-22.21-2.37-5.77-9.22-8.27-14.79-5.44-4.91,2.5-7.17,8.33-5.07,13.43,8.93,21.67,14.24,39.02,16.89,53.66,2.67,14.8,2.63,26.84.84,37.8-.91,5.57,2.65,10.85,8.15,12.12h.05c6.01,1.4,11.94-2.53,12.95-8.62,2.02-12.06,2.27-25.67-.53-42.43Z"/>
    <path class="cls-3" d="m384.41,646.63c-2.37-5.77-9.22-8.27-14.79-5.44-4.91,2.5-7.17,8.33-5.07,13.43,8.7,21.1,13.94,38.08,16.65,52.48,2.89,15.33,2.91,27.74,1.07,38.99-.91,5.57,2.65,10.85,8.15,12.12h.05c6.01,1.4,11.94-2.53,12.95-8.62,1.97-11.79,2.25-25.06-.35-41.31-2.69-16.8-8.46-36.78-18.68-61.64Z"/>
  </g>
  <path class="cls-3" d="m301.54,658.67c-5.47-1.81-10.83-3.7-16.07-5.69-6.78-2.57-13.36-5.29-19.75-8.14-4.17,11.44-8.47,20.93-12.97,28.91-6.25,11.07-12.88,19.31-20.09,26.02-4.13,3.85-4.54,10.21-.97,14.58l.03.04c3.91,4.78,11,5.29,15.53,1.1,8.86-8.19,17.28-18.63,25.24-33.29,5.26,2.07,10.55,4.03,15.91,5.85-6.24,11.06-12.87,19.29-20.07,25.99-4.13,3.85-4.54,10.21-.97,14.58l.03.04c3.91,4.78,11,5.29,15.53,1.1,9.25-8.56,18.03-19.6,26.3-35.32,4.41-8.39,8.68-18.13,12.79-29.56-6.98-1.92-13.8-3.99-20.47-6.19Z"/>
  <g>
    <path class="cls-3" d="m627.17,688.19c-4.42-10.35-10.85-21.01-20.73-32.47-11.45-13.29-27.57-27.67-50.82-43.96-5.11-3.58-12.23-1.99-15.39,3.4-.63,1.08-1.03,2.23-1.25,3.39.55.45,1.08.96,1.55,1.54,4.54,5.62,8.64,10.97,12.39,16.11,15.13,11.22,26.42,21.27,34.93,30.71,9.36,10.39,15.44,20.05,19.62,29.73,2.24,5.18,8.09,7.71,13.4,5.81l.05-.02c5.81-2.07,8.68-8.58,6.25-14.25Z"/>
    <path class="cls-3" d="m538.98,618.55s-.09-.08-.14-.11c-2.35,8.01-5.09,15.92-8.19,23.71,11.65,15.16,19.84,28.08,25.5,39.63,6.2,12.67,9.4,23.7,10.75,34.23.72,5.6,5.64,9.64,11.28,9.29h.05c6.16-.39,10.71-5.85,9.95-11.97-1.5-12.04-5.09-25.04-12.45-40.16-5.37-11.03-12.77-23.21-22.8-36.95-3.09-2.29-6.29-4.62-9.71-7.01-3.49-2.44-5-6.66-4.23-10.65Z"/>
  </g>
  <path class="cls-3" d="m543.21,629.2c3.42,2.4,6.62,4.72,9.71,7.01-3.76-5.15-7.86-10.5-12.39-16.11-.47-.58-.99-1.09-1.55-1.54-.77,3.99.74,8.2,4.23,10.65Z"/>
  <path class="cls-3" d="m184.96,402.12c-9.55-22.35-28.24-46.09-71.55-76.43-.86-.6-1.79-1.01-2.74-1.33.04-.54.08-1.09.08-1.65,0-11.82-9.58-21.4-21.4-21.4s-21.4,9.58-21.4,21.4,9.58,21.4,21.4,21.4c3.6,0,6.99-.9,9.97-2.47.5.54,1.04,1.04,1.67,1.48,38.62,27,55.5,47.17,64.26,67.46,2.24,5.18,8.09,7.71,13.4,5.81l.05-.02c5.81-2.07,8.68-8.58,6.25-14.25Z"/>
  <path class="cls-3" d="m299.08,402.12c-9.27-21.69-27.21-44.71-67.85-73.78.49-1.79.77-3.67.77-5.62,0-11.82-9.58-21.4-21.4-21.4s-21.4,9.58-21.4,21.4,9.58,21.4,21.4,21.4c1.74,0,3.42-.23,5.03-.62,38.24,26.82,55.02,46.89,63.74,67.09,2.24,5.18,8.09,7.71,13.4,5.81l.05-.02c5.81-2.07,8.68-8.58,6.25-14.25Z"/>
  <circle class="cls-3" cx="199.98" cy="493.54" r="10.64"/>
  <circle class="cls-3" cx="278.03" cy="507.73" r="10.64"/>
  <path class="cls-3" d="m216.93,518.26c4.85,0,9.4.96,13.64,2.89,14.79,6.73,21.04,23.41,23.53,33.44,1.04,4.19-1.79,8.34-6.08,8.82h0c-3.56.4-6.8-1.91-7.66-5.38-2.04-8.19-6.76-19.92-15.7-23.97-7.6-3.45-17.81-1.34-30.38,6.28-3.17,1.92-7.32,1.02-9.43-2.03h0c-2.35-3.39-1.29-8.07,2.25-10.2,10.9-6.55,20.88-9.84,29.84-9.84Z"/>
  <circle class="cls-6" cx="292.22" cy="550.3" r="17.74"/>
  <circle class="cls-6" cx="164.51" cy="500.64" r="17.74"/>
  <g>
    <line class="cls-2" x1="196.43" y1="452.23" x2="228.36" y2="484.16"/>
    <rect class="cls-2" x="201.76" y="445.62" width="21.28" height="45.15" rx="10.64" ry="10.64" transform="translate(-268.86 287.32) rotate(-45)"/>
  </g>
  <g>
    <line class="cls-2" x1="285.12" y1="464.02" x2="253.2" y2="495.95"/>
    <rect class="cls-2" x="246.58" y="469.34" width="45.15" height="21.28" rx="10.64" ry="10.64" transform="translate(-260.56 330.91) rotate(-45)"/>
  </g>
</svg>