<?xml version="1.0" encoding="UTF-8"?>
<svg id="Layer_2" data-name="Layer 2" xmlns="http://www.w3.org/2000/svg" viewBox="0 0 800 800">
  <defs>
    <style>
      .cls-1 {
        fill: none;
      }

      .cls-2 {
        fill: #fff;
        stroke: #3a3a3a;
        stroke-miterlimit: 10;
        stroke-width: 21.7px;
      }

      .cls-3 {
        fill: #f9db6c;
      }

      .cls-4 {
        fill: #d6744d;
      }

      .cls-5 {
        fill: #3a3a3a;
      }
    </style>
  </defs>
  <path class="cls-3" d="m330.96,355.22c-107.61,20.3-181.96,76.79-186.71,143.15-5.06,70.68,70.28,138.84,184.59,168.34,31.31-102.69,16.23-233.57,2.13-311.49Z"/>
  <path class="cls-3" d="m530.48,373.25c-28.77-10.41-59.8-18.02-92.56-22.73,4.48,25.12,8.1,50.08,10.77,74.44,12.02,67.49,11.99,128.82-.09,182.3-3.53,25.15-8.77,48.65-15.62,70.14,30.98-2.25,60.66-7.24,88.55-14.9,46.36-91.83,31.29-206.2,8.95-289.26Z"/>
  <path class="cls-1" d="m521.54,662.51c3.37-6.67,6.37-13.47,9.11-20.36-2.18-2.84-4.44-5.73-6.87-8.73-3.47-4.28-2.97-10.52,1.02-14.31,3.94-3.75,9.96-3.89,14.04-.67,24.2-82.42,10.52-174.98-8.36-245.19-28.77-10.41-59.8-18.02-92.56-22.73,4.48,25.12,8.1,50.08,10.77,74.44,12.02,67.49,11.99,128.82-.09,182.3-3.07,21.85-7.43,42.45-13.01,61.58.95,2.77,1.84,5.48,2.67,8.12,29.07-2.42,56.97-7.23,83.27-14.46Z"/>
  <path class="cls-2" d="m388.39,327.36c4.97-1.45,19.82,18.72,22.55,21.58,10.26,10.75,20.83,21.21,31.71,31.34,26.67,24.87,55.01,48.47,85.6,68.39,36.74,23.86,91.14,38.21,125.29,1.47,12.28-13.21,18.49-30.97,21.98-48.67,4.7-23.76,4.73-49.69-7.25-70.75-12.29-21.6-35.93-35.12-60.37-39.61-34.54-6.34-68.76,2.85-102.25,10.46-19.77,4.49-39.57,8.88-59.39,13.17-19.45,4.21-38.74,7.02-57.88,12.61Z"/>
  <path class="cls-5" d="m552.92,636.21c10.03,13.74,17.43,25.92,22.8,36.95,4.1-1.98,8.15-4.06,12.13-6.24-8.51-9.44-19.8-19.5-34.93-30.71Z"/>
  <path class="cls-5" d="m681.86,501.48c-10.1-65.97-64.36-117.34-125.07-147.93-21.11-10.63-42.99-18.76-64.07-24.12-4.1-1.04-8.21-2.01-12.34-2.89-87-18.69-181.28-6.91-260.27,34.21-12.36,6.44-24.3,13.72-35.55,21.96-43.04,31.52-67.41,70.76-70.47,113.51-3.23,45.17,17.45,88.84,59.81,126.29,23.72,20.96,50.38,38,78.87,51.24,4.5-7.98,8.81-17.46,12.97-28.91-77.91-34.81-125.54-89.81-121.48-146.46,4.75-66.36,79.1-122.85,186.71-143.15,14.1,77.92,29.19,208.8-2.13,311.49-2.3-.59-4.55-1.23-6.82-1.85-4.11,11.43-8.38,21.17-12.79,29.56,23.49,6.48,47.66,10.69,71.99,12.67-2.72-14.4-7.96-31.38-16.65-52.48-2.1-5.09.16-10.93,5.07-13.43,5.56-2.83,12.41-.33,14.79,5.44,10.22,24.86,15.99,44.84,18.68,61.64,7.05.19,14.11.19,21.15,0-2.65-14.65-7.96-31.99-16.89-53.66-2.1-5.09.16-10.93,5.07-13.43,5.56-2.83,12.41-.33,14.79,5.44,3.25,7.89,6,15.25,8.39,22.21,5.58-19.13,9.94-39.72,13.01-61.58,12.08-53.48,12.11-114.81.09-182.3-2.67-24.37-6.29-49.32-10.77-74.44,32.76,4.71,63.79,12.32,92.56,22.73,18.89,70.2,32.56,162.76,8.36,245.19.05.04.09.08.14.11.23-1.17.62-2.32,1.25-3.39,3.16-5.39,10.27-6.98,15.39-3.4,23.26,16.29,39.37,30.67,50.82,43.96,36.72-24.36,65.32-58.2,74.32-103.62.08-.41.14-.82.22-1.23,48.49-1.44,51.06-20.72,51.06-24.71s-2.54-23.03-50.19-24.68Z"/>
  <path class="cls-5" d="m521.54,662.51c-26.3,7.22-54.2,12.04-83.27,14.46,3.49,11.14,5.93,21.14,7.44,30.19,10.87-.87,21.69-2.16,32.41-3.92,25.46-4.17,52.37-11.18,78.03-21.46-5.65-11.54-13.85-24.47-25.5-39.63-2.74,6.89-5.75,13.69-9.11,20.36Z"/>
  <g>
    <path class="cls-5" d="m445.71,707.15c-1.51-9.04-3.94-19.05-7.44-30.19-1.76.15-3.51.32-5.28.44.9-2.82,1.77-5.68,2.61-8.56-2.39-6.96-5.15-14.32-8.39-22.21-2.37-5.77-9.22-8.27-14.79-5.44-4.91,2.5-7.17,8.33-5.07,13.43,8.93,21.67,14.24,39.02,16.89,53.66,2.67,14.8,2.63,26.84.84,37.8-.91,5.57,2.65,10.85,8.15,12.12h.05c6.01,1.4,11.94-2.53,12.95-8.62,2.02-12.06,2.27-25.67-.53-42.43Z"/>
    <path class="cls-5" d="m384.41,646.63c-2.37-5.77-9.22-8.27-14.79-5.44-4.91,2.5-7.17,8.33-5.07,13.43,8.7,21.1,13.94,38.08,16.65,52.48,2.89,15.33,2.91,27.74,1.07,38.99-.91,5.57,2.65,10.85,8.15,12.12h.05c6.01,1.4,11.94-2.53,12.95-8.62,1.97-11.79,2.25-25.06-.35-41.31-2.69-16.8-8.46-36.78-18.68-61.64Z"/>
  </g>
  <path class="cls-5" d="m301.54,658.67c-5.47-1.81-10.83-3.7-16.07-5.69-6.78-2.57-13.36-5.29-19.75-8.14-4.17,11.44-8.47,20.93-12.97,28.91-6.25,11.07-12.88,19.31-20.09,26.02-4.13,3.85-4.54,10.21-.97,14.58l.03.04c3.91,4.78,11,5.29,15.53,1.1,8.86-8.19,17.28-18.63,25.24-33.29,5.26,2.07,10.55,4.03,15.91,5.85-6.24,11.06-12.87,19.29-20.07,25.99-4.13,3.85-4.54,10.21-.97,14.58l.03.04c3.91,4.78,11,5.29,15.53,1.1,9.25-8.56,18.03-19.6,26.3-35.32,4.41-8.39,8.68-18.13,12.79-29.56-6.98-1.92-13.8-3.99-20.47-6.19Z"/>
  <g>
    <path class="cls-5" d="m627.17,688.19c-4.42-10.35-10.85-21.01-20.73-32.47-11.45-13.29-27.57-27.67-50.82-43.96-5.11-3.58-12.23-1.99-15.39,3.4-.63,1.08-1.03,2.23-1.25,3.39.55.45,1.08.96,1.55,1.54,4.54,5.62,8.64,10.97,12.39,16.11,15.13,11.22,26.42,21.27,34.93,30.71,9.36,10.39,15.44,20.05,19.62,29.73,2.24,5.18,8.09,7.71,13.4,5.81l.05-.02c5.81-2.07,8.68-8.58,6.25-14.25Z"/>
    <path class="cls-5" d="m538.98,618.55s-.09-.08-.14-.11c-2.35,8.01-5.09,15.92-8.19,23.71,11.65,15.16,19.84,28.08,25.5,39.63,6.2,12.67,9.4,23.7,10.75,34.23.72,5.6,5.64,9.64,11.28,9.29h.05c6.16-.39,10.71-5.85,9.95-11.97-1.5-12.04-5.09-25.04-12.45-40.16-5.37-11.03-12.77-23.21-22.8-36.95-3.09-2.29-6.29-4.62-9.71-7.01-3.49-2.44-5-6.66-4.23-10.65Z"/>
  </g>
  <path class="cls-5" d="m543.21,629.2c3.42,2.4,6.62,4.72,9.71,7.01-3.76-5.15-7.86-10.5-12.39-16.11-.47-.58-.99-1.09-1.55-1.54-.77,3.99.74,8.2,4.23,10.65Z"/>
  <circle class="cls-5" cx="206.53" cy="483.04" r="10.85"/>
  <circle class="cls-5" cx="286.1" cy="497.51" r="10.85"/>
  <path class="cls-5" d="m223.81,508.24c4.95,0,9.58.98,13.9,2.95,15.08,6.87,21.45,23.87,23.99,34.1,1.06,4.27-1.83,8.5-6.2,8.99h0c-3.63.4-6.93-1.95-7.81-5.49-2.08-8.35-6.89-20.31-16.01-24.44-7.75-3.52-18.16-1.37-30.97,6.4-3.23,1.96-7.46,1.04-9.61-2.07h0c-2.4-3.46-1.31-8.23,2.29-10.4,11.12-6.68,21.29-10.03,30.42-10.03Z"/>
  <g>
    <path class="cls-5" d="m160.07,438.94c-22.25,2.67-46.72,13.28-84.11,43.06-4.37,3.48-10.69,2.93-14.51-1.15h0c-4.33-4.62-3.83-12,1.13-15.94,41.98-33.38,70.45-44.72,94.94-47.57,6.22-.72,11.72,3.94,12.06,10.19v.05c.32,5.72-3.82,10.68-9.51,11.36Z"/>
    <circle class="cls-5" cx="52.76" cy="487.44" r="21.7"/>
  </g>
  <g>
    <path class="cls-5" d="m269.4,408.11c-16.79-14.84-40.99-26.07-88.09-34.19-5.5-.95-9.29-6.04-8.79-11.6h0c.57-6.31,6.42-10.84,12.66-9.76,52.85,9.16,80.24,22.89,98.65,39.28,4.67,4.16,4.85,11.37.41,15.78l-.04.04c-4.06,4.04-10.52,4.24-14.81.45Z"/>
    <circle class="cls-5" cx="168.37" cy="357.14" r="21.7"/>
  </g>
  <path class="cls-2" d="m432.45,336.35c5.17.16,13.03,23.95,14.74,27.51,6.42,13.41,13.22,26.63,20.41,39.63,17.63,31.92,37.25,63.16,60.15,91.58,27.52,34.09,74.78,64.62,118.64,40.28,15.77-8.75,27.19-23.71,36-39.44,11.84-21.13,19.92-45.77,15.07-69.5-4.98-24.35-23.25-44.54-45.1-56.39-30.87-16.75-66.25-18.64-100.44-21.8-20.19-1.87-40.37-3.84-60.54-5.91-19.8-2.03-39.01-5.35-58.93-5.98Z"/>
  <circle class="cls-4" cx="300.57" cy="540.91" r="18.08"/>
  <circle class="cls-4" cx="170.36" cy="490.27" r="18.08"/>
</svg>