<?xml version="1.0" encoding="UTF-8"?>
<svg id="Layer_2" data-name="Layer 2" xmlns="http://www.w3.org/2000/svg" viewBox="0 0 800 800">
  <defs>
    <style>
      .cls-1 {
        fill: none;
      }

      .cls-2 {
        fill: #f9db6c;
      }

      .cls-3 {
        fill: #fff;
      }

      .cls-4 {
        fill: #d6744d;
      }

      .cls-5 {
        fill: #3a3a3a;
      }
    </style>
  </defs>
  <g>
    <path class="cls-3" d="m605.55,107.35c-18.87-12.71-36.61-19.13-52.84-19.13-2.39,0-4.76.14-7.08.42-19.39,2.33-38.63,15.43-51.46,35.05-16.19,24.76-21.46,55.24-26.55,84.72-.48,2.79-.96,5.58-1.45,8.37-3.47,19.69-7.08,39.61-10.74,59.22-1.2,6.45-2.55,12.86-3.85,19.06-1.24,5.92-2.45,11.69-3.53,17.42,2.23-.7,4.59-1.41,7.06-2.14,1.4-.41,3.14-.92,3.61-1.09,13.43-5.12,26.92-10.72,40.06-16.63,36.72-16.52,67.27-33.16,93.39-50.88,32.03-21.78,63.18-61.11,45.51-100.23-5.47-12.11-15.98-23.28-32.12-34.16Z"/>
    <path class="cls-5" d="m657.21,132.68h0c-7.16-15.84-20.14-29.94-39.68-43.11-26.04-17.55-51.09-25.02-74.45-22.21-25.6,3.08-50.59,19.75-66.84,44.6-18.62,28.47-24.27,61.18-29.73,92.81-.48,2.77-.96,5.54-1.44,8.3-3.46,19.62-7.06,39.47-10.7,59-1.16,6.21-2.48,12.51-3.76,18.6-2.68,12.8-5.46,26.03-7.01,39.68l21.29,2.43c-.32,2.8-1.81,4.5-2.36,4.92,1.84-1.41,8.11-3.69,18.62-6.78,2.66-.78,4.09-1.21,5.18-1.62,13.85-5.28,27.72-11.04,41.24-17.12,37.86-17.03,69.47-34.26,96.64-52.69,38.92-26.46,76.15-75.54,53-126.79Zm-202.1,177.66c-2.47.73-4.83,1.43-7.06,2.14,1.08-5.73,2.29-11.5,3.53-17.42,1.3-6.2,2.64-12.61,3.85-19.06,3.66-19.61,7.27-39.53,10.74-59.22.49-2.78.97-5.57,1.45-8.37,5.09-29.48,10.35-59.96,26.55-84.72,12.83-19.62,32.07-32.72,51.46-35.05,2.33-.28,4.69-.42,7.08-.42,16.23,0,33.97,6.41,52.84,19.13,16.14,10.88,26.65,22.05,32.12,34.16,17.67,39.12-13.47,78.45-45.51,100.23-26.13,17.72-56.67,34.36-93.39,50.88-13.14,5.91-26.63,11.51-40.06,16.63-.47.17-2.22.68-3.61,1.09Z"/>
  </g>
  <g>
    <path class="cls-3" d="m354.96,62.43c-1-.06-2.01-.08-3.03-.08-12.48,0-26.29,4.2-42.1,12.8-22.94,12.47-37.84,27.44-44.27,44.5-6.89,18.28-4.16,41.39,7.31,61.83,14.48,25.8,39.08,44.55,62.88,62.68,2.26,1.72,4.51,3.44,6.75,5.16,15.82,12.14,31.83,24.55,47.56,36.88,5.16,4.04,10.23,8.2,15.13,12.22,4.68,3.83,9.23,7.57,13.82,11.18.41-2.31.87-4.72,1.37-7.25.28-1.43.63-3.21.7-3.71,1.66-14.27,2.93-28.82,3.76-43.21,2.31-40.2,1.67-74.98-1.98-106.33-4.52-38.48-25.01-84.27-67.88-86.66Z"/>
    <path class="cls-5" d="m444.13,146.61c-5.49-46.74-31.82-102.44-87.97-105.57-17.35-.96-35.85,4.03-56.56,15.28-12.37,6.72-23.01,14.34-31.63,22.66-10.4,10.04-17.96,21.18-22.46,33.11-9.1,24.13-5.86,53.99,8.67,79.89,16.65,29.67,43.05,49.79,68.58,69.24,2.24,1.71,4.47,3.41,6.69,5.11,15.77,12.1,31.71,24.46,47.39,36.75,4.97,3.9,9.95,7.98,14.76,11.92,10.11,8.29,20.57,16.87,31.95,24.55l11.99-17.77c2.33,1.58,3.15,3.68,3.27,4.36-.4-2.28.47-8.89,2.59-19.65.54-2.72.82-4.19.95-5.34,1.71-14.72,3.02-29.68,3.87-44.49,2.39-41.45,1.7-77.44-2.09-110.05Zm-171.26,34.87c-11.47-20.44-14.2-43.56-7.31-61.83,6.43-17.06,21.33-32.04,44.27-44.5,15.81-8.59,29.63-12.8,42.1-12.8,1.02,0,2.03.03,3.03.08,42.87,2.4,63.36,48.19,67.88,86.66,3.65,31.35,4.3,66.14,1.98,106.33-.83,14.39-2.09,28.94-3.76,43.21-.07.5-.42,2.28-.7,3.71-.5,2.53-.96,4.95-1.37,7.25-4.58-3.61-9.14-7.35-13.82-11.18-4.9-4.02-9.96-8.17-15.13-12.22-15.74-12.33-31.74-24.74-47.56-36.88-2.24-1.72-4.49-3.44-6.75-5.16-23.79-18.13-48.4-36.88-62.88-62.68Z"/>
  </g>
  <path class="cls-2" d="m330.84,355.15c-107.79,20.33-182.26,76.91-187.02,143.38-5.07,70.8,70.4,139.06,184.89,168.62,31.36-102.86,16.25-233.95,2.13-312Z"/>
  <path class="cls-2" d="m530.7,373.21c-28.82-10.42-59.89-18.05-92.71-22.77,4.49,25.16,8.11,50.16,10.79,74.57,12.04,67.6,12.01,129.04-.09,182.6-3.54,25.19-8.78,48.73-15.64,70.25,31.03-2.25,60.76-7.25,88.69-14.93,46.43-91.98,31.34-206.53,8.96-289.73Z"/>
  <path class="cls-1" d="m521.73,662.94c3.37-6.68,6.38-13.49,9.13-20.39-2.18-2.84-4.45-5.74-6.88-8.74-3.47-4.29-2.97-10.53,1.02-14.34,3.94-3.75,9.97-3.9,14.06-.67,24.24-82.56,10.54-175.27-8.37-245.59-28.82-10.42-59.89-18.05-92.71-22.77,4.49,25.16,8.11,50.16,10.79,74.57,12.04,67.6,12.01,129.04-.09,182.6-3.08,21.89-7.44,42.52-13.03,61.68.95,2.78,1.85,5.49,2.68,8.13,29.11-2.42,57.06-7.25,83.4-14.48Z"/>
  <path class="cls-5" d="m553.17,636.59c10.04,13.76,17.46,25.96,22.84,37.01,4.11-1.99,8.16-4.07,12.15-6.25-8.53-9.46-19.83-19.53-34.99-30.76Z"/>
  <path class="cls-5" d="m682.32,501.65c-10.12-66.08-64.46-117.53-125.28-148.17-21.14-10.65-43.06-18.79-64.17-24.16-4.1-1.04-8.22-2.01-12.36-2.9-87.14-18.72-181.57-6.92-260.7,34.27-12.38,6.45-24.34,13.74-35.61,21.99-43.11,31.57-67.52,70.88-70.59,113.69-3.24,45.25,17.47,88.99,59.9,126.5,23.76,21,50.47,38.07,79,51.33,4.51-7.99,8.82-17.49,12.99-28.95-78.04-34.86-125.74-89.96-121.68-146.7,4.76-66.47,79.23-123.05,187.02-143.38,14.12,78.05,29.24,209.14-2.13,312-2.3-.59-4.56-1.23-6.83-1.86-4.12,11.45-8.39,21.21-12.81,29.61,23.53,6.49,47.73,10.71,72.11,12.69-2.72-14.42-7.97-31.43-16.68-52.56-2.1-5.1.16-10.95,5.08-13.45,5.57-2.84,12.43-.34,14.81,5.45,10.24,24.9,16.02,44.92,18.71,61.74,7.06.19,14.13.19,21.18,0-2.65-14.67-7.97-32.04-16.92-53.75-2.1-5.1.16-10.95,5.08-13.45,5.57-2.84,12.43-.34,14.81,5.45,3.25,7.91,6.01,15.27,8.41,22.25,5.59-19.16,9.96-39.79,13.03-61.68,12.1-53.57,12.13-115,.09-182.6-2.68-24.41-6.3-49.41-10.79-74.57,32.82,4.71,63.89,12.34,92.71,22.77,18.92,70.32,32.62,163.03,8.37,245.59.05.04.09.08.14.11.23-1.17.62-2.32,1.26-3.4,3.16-5.39,10.29-6.99,15.41-3.4,23.3,16.32,39.43,30.72,50.91,44.03,36.78-24.4,65.43-58.29,74.44-103.79.08-.41.14-.82.22-1.24,48.57-1.44,51.14-20.76,51.14-24.75s-2.55-23.07-50.27-24.72Z"/>
  <path class="cls-5" d="m521.73,662.94c-26.34,7.24-54.29,12.06-83.4,14.48,3.5,11.16,5.94,21.18,7.45,30.24,10.89-.87,21.73-2.17,32.46-3.92,25.5-4.18,52.45-11.2,78.16-21.5-5.66-11.56-13.87-24.51-25.54-39.69-2.74,6.9-5.76,13.71-9.13,20.39Z"/>
  <g>
    <path class="cls-5" d="m445.78,707.66c-1.51-9.06-3.95-19.08-7.45-30.24-1.76.15-3.52.32-5.29.44.9-2.82,1.77-5.69,2.61-8.58-2.4-6.98-5.16-14.34-8.41-22.25-2.38-5.78-9.24-8.28-14.81-5.45-4.92,2.5-7.18,8.35-5.08,13.45,8.95,21.71,14.26,39.08,16.92,53.75,2.68,14.82,2.63,26.88.84,37.86-.91,5.58,2.66,10.87,8.17,12.14h.05c6.02,1.4,11.96-2.54,12.98-8.63,2.02-12.08,2.28-25.71-.53-42.5Z"/>
    <path class="cls-5" d="m384.38,647.04c-2.38-5.78-9.24-8.28-14.81-5.45-4.92,2.5-7.18,8.35-5.08,13.45,8.71,21.13,13.96,38.14,16.68,52.56,2.9,15.36,2.92,27.79,1.08,39.05-.91,5.58,2.66,10.87,8.17,12.14h.05c6.02,1.4,11.96-2.54,12.98-8.63,1.98-11.8,2.25-25.1-.35-41.38-2.69-16.83-8.47-36.84-18.71-61.74Z"/>
  </g>
  <path class="cls-5" d="m301.38,659.09c-5.47-1.81-10.84-3.71-16.09-5.7-6.79-2.58-13.39-5.3-19.78-8.16-4.17,11.46-8.48,20.96-12.99,28.95-6.26,11.09-12.91,19.34-20.12,26.06-4.14,3.85-4.55,10.22-.97,14.6l.03.04c3.91,4.78,11.02,5.3,15.55,1.11,8.87-8.21,17.31-18.66,25.28-33.35,5.27,2.07,10.57,4.04,15.93,5.86-6.25,11.08-12.9,19.32-20.1,26.04-4.14,3.85-4.55,10.22-.97,14.6l.03.04c3.91,4.78,11.02,5.3,15.55,1.11,9.27-8.57,18.06-19.64,26.34-35.38,4.42-8.41,8.69-18.16,12.81-29.61-6.99-1.93-13.83-4-20.5-6.2Z"/>
  <g>
    <path class="cls-5" d="m627.54,688.66c-4.43-10.37-10.87-21.04-20.76-32.52-11.47-13.31-27.61-27.71-50.91-44.03-5.12-3.59-12.25-1.99-15.41,3.4-.63,1.08-1.03,2.23-1.26,3.4.56.45,1.08.96,1.55,1.54,4.55,5.63,8.65,10.98,12.42,16.14,15.16,11.23,26.46,21.31,34.99,30.76,9.38,10.4,15.46,20.08,19.65,29.78,2.24,5.19,8.1,7.72,13.43,5.82l.05-.02c5.82-2.08,8.69-8.59,6.26-14.28Z"/>
    <path class="cls-5" d="m539.21,618.91s-.09-.08-.14-.11c-2.36,8.03-5.1,15.95-8.21,23.75,11.67,15.18,19.88,28.13,25.54,39.69,6.21,12.69,9.41,23.74,10.76,34.29.72,5.61,5.65,9.66,11.3,9.3h.05c6.17-.39,10.73-5.86,9.97-11.99-1.5-12.06-5.1-25.08-12.47-40.23-5.38-11.05-12.79-23.25-22.84-37.01-3.1-2.3-6.3-4.62-9.73-7.02-3.5-2.45-5.01-6.67-4.23-10.66Z"/>
  </g>
  <path class="cls-5" d="m543.44,629.57c3.43,2.4,6.63,4.73,9.73,7.02-3.76-5.16-7.87-10.52-12.42-16.14-.47-.58-.99-1.09-1.55-1.54-.77,3.99.74,8.22,4.23,10.66Z"/>
  <circle class="cls-5" cx="199.58" cy="490.48" r="10.72"/>
  <circle class="cls-5" cx="278.16" cy="504.77" r="10.72"/>
  <path class="cls-5" d="m220.71,560.88c-4.88,0-9.46-.97-13.73-2.91-14.89-6.78-21.18-23.57-23.7-33.67-1.05-4.22,1.8-8.4,6.13-8.88h0c3.58-.4,6.84,1.92,7.71,5.42,2.06,8.25,6.81,20.06,15.81,24.14,7.65,3.47,17.93,1.35,30.59-6.32,3.19-1.94,7.37-1.02,9.49,2.04h0c2.37,3.41,1.3,8.13-2.27,10.27-10.98,6.6-21.02,9.91-30.04,9.91Z"/>
  <path class="cls-5" d="m184.61,402.12c-9.57-22.39-28.28-46.16-71.67-76.55-.86-.61-1.8-1.01-2.75-1.33.04-.55.08-1.09.08-1.65,0-11.84-9.6-21.43-21.43-21.43s-21.43,9.6-21.43,21.43,9.6,21.43,21.43,21.43c3.61,0,7.01-.9,9.99-2.48.5.54,1.05,1.05,1.67,1.48,38.68,27.05,55.59,47.25,64.36,67.57,2.24,5.19,8.1,7.72,13.43,5.82l.05-.02c5.82-2.08,8.69-8.59,6.26-14.28Z"/>
  <path class="cls-5" d="m298.91,402.12c-9.28-21.72-27.26-44.78-67.96-73.9.49-1.8.77-3.68.77-5.63,0-11.84-9.6-21.43-21.43-21.43s-21.43,9.6-21.43,21.43,9.6,21.43,21.43,21.43c1.74,0,3.42-.23,5.04-.62,38.3,26.86,55.11,46.97,63.84,67.19,2.24,5.19,8.1,7.72,13.43,5.82l.05-.02c5.82-2.08,8.69-8.59,6.26-14.28Z"/>
  <circle class="cls-4" cx="292.45" cy="547.63" r="17.86"/>
  <circle class="cls-4" cx="163.86" cy="497.63" r="17.86"/>
</svg>